<mxfile host="app.diagrams.net" modified="2023-11-03T11:39:24.549Z" agent="Mozilla/5.0 (Windows NT 10.0; Win64; x64) AppleWebKit/537.36 (KHTML, like Gecko) Chrome/117.0.0.0 Safari/537.36" version="21.6.2" etag="e-ezwUxdAPedl5EOJH5L" type="github">
  <diagram name="第 1 页" id="qGIdX1olKemFDS8tXgz6">
    <mxGraphModel>
      <root>
        <mxCell id="0" />
        <mxCell id="1" parent="0" />
      </root>
    </mxGraphModel>
  </diagram>
</mxfile>
